<?xml version="1.0" encoding="UTF-8"?>
<svg width="485px" height="49px" viewBox="0 0 485 49" version="1.1" xmlns="http://www.w3.org/2000/svg" xmlns:xlink="http://www.w3.org/1999/xlink">
    <!-- Generator: Sketch 46 (44423) - http://www.bohemiancoding.com/sketch -->
    <title>getintouch</title>
    <desc>Created with Sketch.</desc>
    <defs></defs>
    <g id="Page-1" stroke="none" stroke-width="1" fill="none" fill-rule="evenodd">
        <g id="Desktop" transform="translate(-185.000000, -1799.000000)" fill="#000000">
            <g id="Group-3" transform="translate(185.000000, 1799.000000)">
                <rect id="Rectangle-2" x="312" y="24.3913043" width="8.29411765" height="8.26086957"></rect>
                <rect id="Rectangle-2" x="312" y="16.3913043" width="8.29411765" height="8.26086957"></rect>
                <rect id="Rectangle-2" x="312" y="8.39130435" width="8.29411765" height="8.26086957"></rect>
                <rect id="Rectangle-2" x="320" y="0.391304348" width="8.29411765" height="8.26086957"></rect>
                <rect id="Rectangle-2" x="328" y="0.391304348" width="8.29411765" height="8.26086957"></rect>
                <rect id="Rectangle-2" x="320" y="40.3913043" width="8.29411765" height="8.26086957"></rect>
                <rect id="Rectangle-2" x="328" y="40.3913043" width="8.29411765" height="8.26086957"></rect>
                <rect id="Rectangle-2" x="364" y="40.3913043" width="8.29411765" height="8.26086957"></rect>
                <rect id="Rectangle-2" x="372" y="40.3913043" width="8.29411765" height="8.26086957"></rect>
                <rect id="Rectangle-2" x="312" y="32.3913043" width="8.29411765" height="8.26086957"></rect>
                <rect id="Rectangle-2" x="336" y="24.3913043" width="8.29411765" height="8.26086957"></rect>
                <rect id="Rectangle-2" x="336" y="16.3913043" width="8.29411765" height="8.26086957"></rect>
                <rect id="Rectangle-2" x="336" y="8.39130435" width="8.29411765" height="8.26086957"></rect>
                <rect id="Rectangle-2" x="336" y="32.3913043" width="8.29411765" height="8.26086957"></rect>
                <rect id="Rectangle-2" x="400" y="24" width="8.29411765" height="8.26086957"></rect>
                <rect id="Rectangle-2" x="400" y="16" width="8.29411765" height="8.26086957"></rect>
                <rect id="Rectangle-2" x="400" y="8" width="8.29411765" height="8.26086957"></rect>
                <rect id="Rectangle-2" x="408" y="0" width="8.29411765" height="8.26086957"></rect>
                <rect id="Rectangle-2" x="416" y="0" width="8.29411765" height="8.26086957"></rect>
                <rect id="Rectangle-2" x="408" y="40" width="8.29411765" height="8.26086957"></rect>
                <rect id="Rectangle-2" x="416" y="40" width="8.29411765" height="8.26086957"></rect>
                <rect id="Rectangle-2" x="400" y="32" width="8.29411765" height="8.26086957"></rect>
                <rect id="Rectangle-2" x="424" y="8" width="8.29411765" height="8.26086957"></rect>
                <rect id="Rectangle-2" x="424" y="32" width="8.29411765" height="8.26086957"></rect>
                <rect id="Rectangle-2" x="356" y="16.3913043" width="8.29411765" height="8.26086957"></rect>
                <rect id="Rectangle-2" x="356" y="8.39130435" width="8.29411765" height="8.26086957"></rect>
                <rect id="Rectangle-2" x="356" y="0.391304348" width="8.29411765" height="8.26086957"></rect>
                <rect id="Rectangle-2" x="356" y="24.3913043" width="8.29411765" height="8.26086957"></rect>
                <rect id="Rectangle-2" x="356" y="32.3913043" width="8.29411765" height="8.26086957"></rect>
                <rect id="Rectangle-2" x="380" y="16.3913043" width="8.29411765" height="8.26086957"></rect>
                <rect id="Rectangle-2" x="380" y="8.39130435" width="8.29411765" height="8.26086957"></rect>
                <rect id="Rectangle-2" x="380" y="0.391304348" width="8.29411765" height="8.26086957"></rect>
                <rect id="Rectangle-2" x="380" y="24.3913043" width="8.29411765" height="8.26086957"></rect>
                <rect id="Rectangle-2" x="380" y="32.3913043" width="8.29411765" height="8.26086957"></rect>
                <rect id="Rectangle-2" x="104" y="24.1304348" width="8.29411765" height="8.26086957"></rect>
                <rect id="Rectangle-2" x="104" y="16.1304348" width="8.29411765" height="8.26086957"></rect>
                <rect id="Rectangle-2" x="104" y="8.13043478" width="8.29411765" height="8.26086957"></rect>
                <rect id="Rectangle-2" x="104" y="0.130434783" width="8.29411765" height="8.26086957"></rect>
                <rect id="Rectangle-2" x="96" y="0.130434783" width="8.29411765" height="8.26086957"></rect>
                <rect id="Rectangle-2" x="88" y="0.130434783" width="8.29411765" height="8.26086957"></rect>
                <rect id="Rectangle-2" x="112" y="0.130434783" width="8.29411765" height="8.26086957"></rect>
                <rect id="Rectangle-2" x="120" y="0.130434783" width="8.29411765" height="8.26086957"></rect>
                <rect id="Rectangle-2" x="104" y="32.1304348" width="8.29411765" height="8.26086957"></rect>
                <rect id="Rectangle-2" x="104" y="40.1304348" width="8.29411765" height="8.26086957"></rect>
                <rect id="Rectangle-2" x="276" y="24" width="8.29411765" height="8.26086957"></rect>
                <rect id="Rectangle-2" x="276" y="16" width="8.29411765" height="8.26086957"></rect>
                <rect id="Rectangle-2" x="276" y="8" width="8.29411765" height="8.26086957"></rect>
                <rect id="Rectangle-2" x="276" y="0" width="8.29411765" height="8.26086957"></rect>
                <rect id="Rectangle-2" x="268" y="0" width="8.29411765" height="8.26086957"></rect>
                <rect id="Rectangle-2" x="260" y="0" width="8.29411765" height="8.26086957"></rect>
                <rect id="Rectangle-2" x="284" y="0" width="8.29411765" height="8.26086957"></rect>
                <rect id="Rectangle-2" x="292" y="0" width="8.29411765" height="8.26086957"></rect>
                <rect id="Rectangle-2" x="276" y="32" width="8.29411765" height="8.26086957"></rect>
                <rect id="Rectangle-2" x="276" y="40" width="8.29411765" height="8.26086957"></rect>
                <rect id="Rectangle-2" x="164" y="24" width="8.29411765" height="8.26086957"></rect>
                <rect id="Rectangle-2" x="164" y="16" width="8.29411765" height="8.26086957"></rect>
                <rect id="Rectangle-2" x="164" y="8" width="8.29411765" height="8.26086957"></rect>
                <rect id="Rectangle-2" x="164" y="0" width="8.29411765" height="8.26086957"></rect>
                <rect id="Rectangle-2" x="164" y="32" width="8.29411765" height="8.26086957"></rect>
                <rect id="Rectangle-2" x="164" y="40" width="8.29411765" height="8.26086957"></rect>
                <rect id="Rectangle-2" x="44" y="24" width="8.29411765" height="8.26086957"></rect>
                <rect id="Rectangle-2" x="44" y="16" width="8.29411765" height="8.26086957"></rect>
                <rect id="Rectangle-2" x="44" y="8" width="8.29411765" height="8.26086957"></rect>
                <rect id="Rectangle-2" x="44" y="0" width="8.29411765" height="8.26086957"></rect>
                <rect id="Rectangle-2" x="52" y="0" width="8.29411765" height="8.26086957"></rect>
                <rect id="Rectangle-2" x="60" y="0" width="8.29411765" height="8.26086957"></rect>
                <rect id="Rectangle-2" x="52" y="20" width="8.29411765" height="8.26086957"></rect>
                <rect id="Rectangle-2" x="60" y="20" width="8.29411765" height="8.26086957"></rect>
                <rect id="Rectangle-2" x="52" y="40" width="8.29411765" height="8.26086957"></rect>
                <rect id="Rectangle-2" x="60" y="40" width="8.29411765" height="8.26086957"></rect>
                <rect id="Rectangle-2" x="68" y="0" width="8.29411765" height="8.26086957"></rect>
                <rect id="Rectangle-2" x="68" y="40" width="8.29411765" height="8.26086957"></rect>
                <rect id="Rectangle-2" x="44" y="32" width="8.29411765" height="8.26086957"></rect>
                <rect id="Rectangle-2" x="44" y="40" width="8.29411765" height="8.26086957"></rect>
                <rect id="Rectangle-2" x="184" y="24.2608696" width="8.29411765" height="8.26086957"></rect>
                <rect id="Rectangle-2" x="184" y="16.2608696" width="8.29411765" height="8.26086957"></rect>
                <rect id="Rectangle-2" x="184" y="8.26086957" width="8.29411765" height="8.26086957"></rect>
                <rect id="Rectangle-2" x="184" y="0.260869565" width="8.29411765" height="8.26086957"></rect>
                <rect id="Rectangle-2" x="192" y="8.26086957" width="8.29411765" height="8.26086957"></rect>
                <rect id="Rectangle-2" x="200" y="16.2608696" width="8.29411765" height="8.26086957"></rect>
                <rect id="Rectangle-2" x="208" y="24" width="8.29411765" height="8.26086957"></rect>
                <rect id="Rectangle-2" x="216" y="0.260869565" width="8.29411765" height="8.26086957"></rect>
                <rect id="Rectangle-2" x="184" y="32.2608696" width="8.29411765" height="8.26086957"></rect>
                <rect id="Rectangle-2" x="184" y="40.2608696" width="8.29411765" height="8.26086957"></rect>
                <rect id="Rectangle-2" x="216" y="24.2608696" width="8.29411765" height="8.26086957"></rect>
                <rect id="Rectangle-2" x="216" y="16.2608696" width="8.29411765" height="8.26086957"></rect>
                <rect id="Rectangle-2" x="216" y="8.26086957" width="8.29411765" height="8.26086957"></rect>
                <rect id="Rectangle-2" x="216" y="32.2608696" width="8.29411765" height="8.26086957"></rect>
                <rect id="Rectangle-2" x="216" y="40.2608696" width="8.29411765" height="8.26086957"></rect>
                <rect id="Rectangle-2" x="444" y="24" width="8.29411765" height="8.26086957"></rect>
                <rect id="Rectangle-2" x="444" y="16" width="8.29411765" height="8.26086957"></rect>
                <rect id="Rectangle-2" x="444" y="8" width="8.29411765" height="8.26086957"></rect>
                <rect id="Rectangle-2" x="444" y="0" width="8.29411765" height="8.26086957"></rect>
                <rect id="Rectangle-2" x="452" y="16" width="8.29411765" height="8.26086957"></rect>
                <rect id="Rectangle-2" x="460" y="16" width="8.29411765" height="8.26086957"></rect>
                <rect id="Rectangle-2" x="468" y="16" width="8.29411765" height="8.26086957"></rect>
                <rect id="Rectangle-2" x="476" y="0" width="8.29411765" height="8.26086957"></rect>
                <rect id="Rectangle-2" x="444" y="32" width="8.29411765" height="8.26086957"></rect>
                <rect id="Rectangle-2" x="444" y="40" width="8.29411765" height="8.26086957"></rect>
                <rect id="Rectangle-2" x="476" y="24" width="8.29411765" height="8.26086957"></rect>
                <rect id="Rectangle-2" x="476" y="16" width="8.29411765" height="8.26086957"></rect>
                <rect id="Rectangle-2" x="476" y="8" width="8.29411765" height="8.26086957"></rect>
                <rect id="Rectangle-2" x="476" y="32" width="8.29411765" height="8.26086957"></rect>
                <rect id="Rectangle-2" x="476" y="40" width="8.29411765" height="8.26086957"></rect>
                <rect id="Rectangle-2" x="0" y="24" width="8.29411765" height="8.26086957"></rect>
                <rect id="Rectangle-2" x="0" y="16" width="8.29411765" height="8.26086957"></rect>
                <rect id="Rectangle-2" x="0" y="8" width="8.29411765" height="8.26086957"></rect>
                <rect id="Rectangle-2" x="8" y="0" width="8.29411765" height="8.26086957"></rect>
                <rect id="Rectangle-2" x="16" y="0" width="8.29411765" height="8.26086957"></rect>
                <rect id="Rectangle-2" x="16" y="24" width="8.29411765" height="8.26086957"></rect>
                <rect id="Rectangle-2" x="24" y="8.26086957" width="8.29411765" height="8.26086957"></rect>
                <rect id="Rectangle-2" x="24" y="24" width="8.29411765" height="8.26086957"></rect>
                <rect id="Rectangle-2" x="24" y="32" width="8.29411765" height="8.26086957"></rect>
                <rect id="Rectangle-2" x="16" y="40" width="8.29411765" height="8.26086957"></rect>
                <rect id="Rectangle-2" x="8" y="40" width="8.29411765" height="8.26086957"></rect>
                <rect id="Rectangle-2" x="0" y="40" width="8.29411765" height="8.26086957"></rect>
                <rect id="Rectangle-2" x="0" y="32" width="8.29411765" height="8.26086957"></rect>
            </g>
        </g>
    </g>
</svg>