<?xml version="1.0" encoding="UTF-8"?>
<svg width="636px" height="101px" viewBox="0 0 636 101" version="1.1" xmlns="http://www.w3.org/2000/svg" xmlns:xlink="http://www.w3.org/1999/xlink">
    <!-- Generator: Sketch 46 (44423) - http://www.bohemiancoding.com/sketch -->
    <title>simpson</title>
    <desc>Created with Sketch.</desc>
    <defs></defs>
    <g id="Page-1" stroke="none" stroke-width="1" fill="none" fill-rule="evenodd">
        <g id="Artboard" transform="translate(-486.000000, -357.000000)" fill="#000000">
            <g id="Group" transform="translate(486.000000, 357.000000)">
                <rect id="Rectangle" x="103.60181" y="0" width="14.3891403" height="101"></rect>
                <rect id="Rectangle" x="578.443439" y="14.4285714" width="14.3891403" height="14.4285714"></rect>
                <rect id="Rectangle" x="592.832579" y="28.8571429" width="14.3891403" height="14.4285714"></rect>
                <rect id="Rectangle" x="607.221719" y="43.2857143" width="14.3891403" height="14.4285714"></rect>
                <rect id="Rectangle" x="564.054299" y="0" width="14.3891403" height="101"></rect>
                <rect id="Rectangle" x="621.61086" y="0" width="14.3891403" height="101"></rect>
                <rect id="Rectangle" x="164.036199" y="14.4285714" width="14.3891403" height="14.4285714"></rect>
                <rect id="Rectangle" x="178.425339" y="28.8571429" width="14.3891403" height="14.4285714"></rect>
                <rect id="Rectangle" x="192.81448" y="14.4285714" width="14.3891403" height="14.4285714"></rect>
                <rect id="Rectangle" x="149.647059" y="0" width="14.3891403" height="101"></rect>
                <rect id="Rectangle" x="207.20362" y="0" width="14.3891403" height="101"></rect>
                <rect id="Rectangle" x="267.638009" y="0" width="14.3891403" height="14.4285714"></rect>
                <rect id="Rectangle" x="282.027149" y="0" width="14.3891403" height="14.4285714"></rect>
                <rect id="Rectangle" x="296.41629" y="0" width="14.3891403" height="14.4285714"></rect>
                <rect id="Rectangle" x="296.41629" y="43.2857143" width="14.3891403" height="14.4285714"></rect>
                <rect id="Rectangle" x="310.80543" y="14.4285714" width="14.3891403" height="14.4285714"></rect>
                <rect id="Rectangle" x="310.80543" y="28.8571429" width="14.3891403" height="14.4285714"></rect>
                <rect id="Rectangle" x="282.027149" y="43.2857143" width="14.3891403" height="14.4285714"></rect>
                <rect id="Rectangle" x="267.638009" y="43.2857143" width="14.3891403" height="14.4285714"></rect>
                <rect id="Rectangle" x="253.248869" y="0" width="14.3891403" height="101"></rect>
                <rect id="Rectangle" x="57.5565611" y="14.4285714" width="14.3891403" height="14.4285714"></rect>
                <rect id="Rectangle" x="43.1674208" y="0" width="14.3891403" height="14.4285714"></rect>
                <rect id="Rectangle" x="28.7782805" y="0" width="14.3891403" height="14.4285714"></rect>
                <rect id="Rectangle" x="14.3891403" y="0" width="14.3891403" height="14.4285714"></rect>
                <rect id="Rectangle" x="0" y="14.4285714" width="14.3891403" height="14.4285714"></rect>
                <rect id="Rectangle" x="0" y="28.8571429" width="14.3891403" height="14.4285714"></rect>
                <rect id="Rectangle" x="14.3891403" y="43.2857143" width="14.3891403" height="14.4285714"></rect>
                <rect id="Rectangle" x="28.7782805" y="43.2857143" width="14.3891403" height="14.4285714"></rect>
                <rect id="Rectangle" x="57.5565611" y="57.7142857" width="14.3891403" height="14.4285714"></rect>
                <rect id="Rectangle" x="57.5565611" y="72.1428571" width="14.3891403" height="14.4285714"></rect>
                <rect id="Rectangle" x="43.1674208" y="86.5714286" width="14.3891403" height="14.4285714"></rect>
                <rect id="Rectangle" x="28.7782805" y="86.5714286" width="14.3891403" height="14.4285714"></rect>
                <rect id="Rectangle" x="14.3891403" y="86.5714286" width="14.3891403" height="14.4285714"></rect>
                <rect id="Rectangle" x="0" y="72.1428571" width="14.3891403" height="14.4285714"></rect>
                <rect id="Rectangle" x="43.1674208" y="43.2857143" width="14.3891403" height="14.4285714"></rect>
                <rect id="Rectangle" x="503.61991" y="0" width="14.3891403" height="14.4285714"></rect>
                <rect id="Rectangle" x="489.230769" y="0" width="14.3891403" height="14.4285714"></rect>
                <rect id="Rectangle" x="474.841629" y="0" width="14.3891403" height="14.4285714"></rect>
                <rect id="Rectangle" x="503.61991" y="86.5714286" width="14.3891403" height="14.4285714"></rect>
                <rect id="Rectangle" x="489.230769" y="86.5714286" width="14.3891403" height="14.4285714"></rect>
                <rect id="Rectangle" x="474.841629" y="86.5714286" width="14.3891403" height="14.4285714"></rect>
                <rect id="Rectangle" x="460.452489" y="14.4285714" width="14.3891403" height="72.1428571"></rect>
                <rect id="Rectangle" x="518.00905" y="14.4285714" width="14.3891403" height="72.1428571"></rect>
                <rect id="Rectangle" x="414.40724" y="14.4285714" width="14.3891403" height="14.4285714"></rect>
                <rect id="Rectangle" x="400.0181" y="0" width="14.3891403" height="14.4285714"></rect>
                <rect id="Rectangle" x="385.628959" y="0" width="14.3891403" height="14.4285714"></rect>
                <rect id="Rectangle" x="371.239819" y="0" width="14.3891403" height="14.4285714"></rect>
                <rect id="Rectangle" x="356.850679" y="14.4285714" width="14.3891403" height="14.4285714"></rect>
                <rect id="Rectangle" x="356.850679" y="28.8571429" width="14.3891403" height="14.4285714"></rect>
                <rect id="Rectangle" x="371.239819" y="43.2857143" width="14.3891403" height="14.4285714"></rect>
                <rect id="Rectangle" x="385.628959" y="43.2857143" width="14.3891403" height="14.4285714"></rect>
                <rect id="Rectangle" x="414.40724" y="57.7142857" width="14.3891403" height="14.4285714"></rect>
                <rect id="Rectangle" x="414.40724" y="72.1428571" width="14.3891403" height="14.4285714"></rect>
                <rect id="Rectangle" x="400.0181" y="86.5714286" width="14.3891403" height="14.4285714"></rect>
                <rect id="Rectangle" x="385.628959" y="86.5714286" width="14.3891403" height="14.4285714"></rect>
                <rect id="Rectangle" x="371.239819" y="86.5714286" width="14.3891403" height="14.4285714"></rect>
                <rect id="Rectangle" x="356.850679" y="72.1428571" width="14.3891403" height="14.4285714"></rect>
                <rect id="Rectangle" x="400.0181" y="43.2857143" width="14.3891403" height="14.4285714"></rect>
            </g>
        </g>
    </g>
</svg>