<?xml version="1.0" encoding="UTF-8"?>
<svg width="365px" height="49px" viewBox="0 0 365 49" version="1.1" xmlns="http://www.w3.org/2000/svg" xmlns:xlink="http://www.w3.org/1999/xlink">
    <!-- Generator: Sketch 46 (44423) - http://www.bohemiancoding.com/sketch -->
    <title>myskills</title>
    <desc>Created with Sketch.</desc>
    <defs></defs>
    <g id="Page-1" stroke="none" stroke-width="1" fill="none" fill-rule="evenodd">
        <g id="Desktop" transform="translate(-141.000000, -2005.000000)" fill="#FFFFFF">
            <g id="Group-2" transform="translate(141.000000, 2005.000000)">
                <rect id="Rectangle-2" x="0" y="24" width="8.29411765" height="8.26086957"></rect>
                <rect id="Rectangle-2" x="0" y="16" width="8.29411765" height="8.26086957"></rect>
                <rect id="Rectangle-2" x="0" y="8" width="8.29411765" height="8.26086957"></rect>
                <rect id="Rectangle-2" x="0" y="0" width="8.29411765" height="8.26086957"></rect>
                <rect id="Rectangle-2" x="8" y="8" width="8.29411765" height="8.26086957"></rect>
                <rect id="Rectangle-2" x="16" y="16" width="8.29411765" height="8.26086957"></rect>
                <rect id="Rectangle-2" x="24" y="8" width="8.29411765" height="8.26086957"></rect>
                <rect id="Rectangle-2" x="32" y="0" width="8.29411765" height="8.26086957"></rect>
                <rect id="Rectangle-2" x="53" y="0" width="8.29411765" height="8.26086957"></rect>
                <rect id="Rectangle-2" x="61" y="8" width="8.29411765" height="8.26086957"></rect>
                <rect id="Rectangle-2" x="69" y="16" width="8.29411765" height="8.26086957"></rect>
                <rect id="Rectangle-2" x="69" y="24" width="8.29411765" height="8.26086957"></rect>
                <rect id="Rectangle-2" x="69" y="32" width="8.29411765" height="8.26086957"></rect>
                <rect id="Rectangle-2" x="69" y="40" width="8.29411765" height="8.26086957"></rect>
                <rect id="Rectangle-2" x="77" y="8" width="8.29411765" height="8.26086957"></rect>
                <rect id="Rectangle-2" x="85" y="0" width="8.29411765" height="8.26086957"></rect>
                <rect id="Rectangle-2" x="133" y="8" width="8.29411765" height="8.26086957"></rect>
                <rect id="Rectangle-2" x="141" y="0" width="8.29411765" height="8.26086957"></rect>
                <rect id="Rectangle-2" x="149" y="0" width="8.29411765" height="8.26086957"></rect>
                <rect id="Rectangle-2" x="141" y="16" width="8.29411765" height="8.26086957"></rect>
                <rect id="Rectangle-2" x="149" y="24" width="8.29411765" height="8.26086957"></rect>
                <rect id="Rectangle-2" x="157" y="8" width="8.29411765" height="8.26086957"></rect>
                <rect id="Rectangle-2" x="157" y="32" width="8.29411765" height="8.26086957"></rect>
                <rect id="Rectangle-2" x="149" y="40" width="8.29411765" height="8.26086957"></rect>
                <rect id="Rectangle-2" x="141" y="40" width="8.29411765" height="8.26086957"></rect>
                <rect id="Rectangle-2" x="133" y="32" width="8.29411765" height="8.26086957"></rect>
                <rect id="Rectangle-2" x="332" y="8" width="8.29411765" height="8.26086957"></rect>
                <rect id="Rectangle-2" x="340" y="0" width="8.29411765" height="8.26086957"></rect>
                <rect id="Rectangle-2" x="348" y="0" width="8.29411765" height="8.26086957"></rect>
                <rect id="Rectangle-2" x="340" y="16" width="8.29411765" height="8.26086957"></rect>
                <rect id="Rectangle-2" x="348" y="24" width="8.29411765" height="8.26086957"></rect>
                <rect id="Rectangle-2" x="356" y="8" width="8.29411765" height="8.26086957"></rect>
                <rect id="Rectangle-2" x="356" y="32" width="8.29411765" height="8.26086957"></rect>
                <rect id="Rectangle-2" x="348" y="40" width="8.29411765" height="8.26086957"></rect>
                <rect id="Rectangle-2" x="340" y="40" width="8.29411765" height="8.26086957"></rect>
                <rect id="Rectangle-2" x="332" y="32" width="8.29411765" height="8.26086957"></rect>
                <rect id="Rectangle-2" x="0" y="32" width="8.29411765" height="8.26086957"></rect>
                <rect id="Rectangle-2" x="0" y="40" width="8.29411765" height="8.26086957"></rect>
                <rect id="Rectangle-2" x="178" y="24" width="8.29411765" height="8.26086957"></rect>
                <rect id="Rectangle-2" x="178" y="16" width="8.29411765" height="8.26086957"></rect>
                <rect id="Rectangle-2" x="178" y="8" width="8.29411765" height="8.26086957"></rect>
                <rect id="Rectangle-2" x="178" y="0" width="8.29411765" height="8.26086957"></rect>
                <rect id="Rectangle-2" x="186" y="16" width="8.29411765" height="8.26086957"></rect>
                <rect id="Rectangle-2" x="194" y="8" width="8.29411765" height="8.26086957"></rect>
                <rect id="Rectangle-2" x="202" y="0" width="8.29411765" height="8.26086957"></rect>
                <rect id="Rectangle-2" x="202" y="32" width="8.29411765" height="8.26086957"></rect>
                <rect id="Rectangle-2" x="202" y="40" width="8.29411765" height="8.26086957"></rect>
                <rect id="Rectangle-2" x="194" y="24" width="8.29411765" height="8.26086957"></rect>
                <rect id="Rectangle-2" x="178" y="32" width="8.29411765" height="8.26086957"></rect>
                <rect id="Rectangle-2" x="178" y="40" width="8.29411765" height="8.26086957"></rect>
                <rect id="Rectangle-2" x="223" y="24" width="8.29411765" height="8.26086957"></rect>
                <rect id="Rectangle-2" x="223" y="16" width="8.29411765" height="8.26086957"></rect>
                <rect id="Rectangle-2" x="223" y="8" width="8.29411765" height="8.26086957"></rect>
                <rect id="Rectangle-2" x="223" y="0" width="8.29411765" height="8.26086957"></rect>
                <rect id="Rectangle-2" x="223" y="32" width="8.29411765" height="8.26086957"></rect>
                <rect id="Rectangle-2" x="223" y="40" width="8.29411765" height="8.26086957"></rect>
                <rect id="Rectangle-2" x="245" y="24" width="8.29411765" height="8.26086957"></rect>
                <rect id="Rectangle-2" x="245" y="16" width="8.29411765" height="8.26086957"></rect>
                <rect id="Rectangle-2" x="245" y="8" width="8.29411765" height="8.26086957"></rect>
                <rect id="Rectangle-2" x="245" y="0" width="8.29411765" height="8.26086957"></rect>
                <rect id="Rectangle-2" x="245" y="32" width="8.29411765" height="8.26086957"></rect>
                <rect id="Rectangle-2" x="245" y="40" width="8.29411765" height="8.26086957"></rect>
                <rect id="Rectangle-2" x="253" y="40" width="8.29411765" height="8.26086957"></rect>
                <rect id="Rectangle-2" x="269" y="40" width="8.29411765" height="8.26086957"></rect>
                <rect id="Rectangle-2" x="261" y="40" width="8.29411765" height="8.26086957"></rect>
                <rect id="Rectangle-2" x="290" y="24" width="8.29411765" height="8.26086957"></rect>
                <rect id="Rectangle-2" x="290" y="16" width="8.29411765" height="8.26086957"></rect>
                <rect id="Rectangle-2" x="290" y="8" width="8.29411765" height="8.26086957"></rect>
                <rect id="Rectangle-2" x="290" y="0" width="8.29411765" height="8.26086957"></rect>
                <rect id="Rectangle-2" x="290" y="32" width="8.29411765" height="8.26086957"></rect>
                <rect id="Rectangle-2" x="290" y="40" width="8.29411765" height="8.26086957"></rect>
                <rect id="Rectangle-2" x="298" y="40" width="8.29411765" height="8.26086957"></rect>
                <rect id="Rectangle-2" x="314" y="40" width="8.29411765" height="8.26086957"></rect>
                <rect id="Rectangle-2" x="306" y="40" width="8.29411765" height="8.26086957"></rect>
                <rect id="Rectangle-2" x="32" y="24" width="8.29411765" height="8.26086957"></rect>
                <rect id="Rectangle-2" x="32" y="16" width="8.29411765" height="8.26086957"></rect>
                <rect id="Rectangle-2" x="32" y="8" width="8.29411765" height="8.26086957"></rect>
                <rect id="Rectangle-2" x="32" y="32" width="8.29411765" height="8.26086957"></rect>
                <rect id="Rectangle-2" x="32" y="40" width="8.29411765" height="8.26086957"></rect>
            </g>
        </g>
    </g>
</svg>