<?xml version="1.0" encoding="UTF-8"?>
<svg width="141px" height="190px" viewBox="0 0 141 190" version="1.1" xmlns="http://www.w3.org/2000/svg" xmlns:xlink="http://www.w3.org/1999/xlink">
    <!-- Generator: Sketch 46 (44423) - http://www.bohemiancoding.com/sketch -->
    <title>person</title>
    <desc>Created with Sketch.</desc>
    <defs></defs>
    <g id="Page-1" stroke="none" stroke-width="1" fill="none" fill-rule="evenodd">
        <g id="Desktop" transform="translate(-570.000000, -1022.000000)">
            <rect id="Rectangle-2" fill="#FFFFFF" x="611.470588" y="1121.13043" width="8.29411765" height="8.26086957"></rect>
            <rect id="Rectangle-2" fill="#F7F7F7" x="611.470588" y="1112.86957" width="8.29411765" height="8.26086957"></rect>
            <rect id="Rectangle-2" fill="#73523D" x="603.176471" y="1104.6087" width="8.29411765" height="8.26086957"></rect>
            <rect id="Rectangle-2" fill="#73523D" x="611.470588" y="1104.6087" width="8.29411765" height="8.26086957"></rect>
            <rect id="Rectangle-2" fill="#73523D" x="619.764706" y="1079.82609" width="8.29411765" height="8.26086957"></rect>
            <rect id="Rectangle-2" fill="#73523D" x="619.764706" y="1038.52174" width="8.29411765" height="8.26086957"></rect>
            <rect id="Rectangle-2" fill="#73523D" x="628.058824" y="1038.52174" width="8.29411765" height="8.26086957"></rect>
            <rect id="Rectangle-2" fill="#73523D" x="628.058824" y="1030.26087" width="8.29411765" height="8.26086957"></rect>
            <rect id="Rectangle-2" fill="#73523D" x="652.941176" y="1038.52174" width="8.29411765" height="8.26086957"></rect>
            <rect id="Rectangle-2" fill="#73523D" x="652.941176" y="1030.26087" width="8.29411765" height="8.26086957"></rect>
            <rect id="Rectangle-2" fill="#73523D" x="652.941176" y="1055.04348" width="8.29411765" height="8.26086957"></rect>
            <rect id="Rectangle-2" fill="#73523D" x="652.941176" y="1046.78261" width="8.29411765" height="8.26086957"></rect>
            <rect id="Rectangle-2" fill="#73523D" x="661.235294" y="1063.30435" width="8.29411765" height="8.26086957"></rect>
            <rect id="Rectangle-2" fill="#73523D" x="686.117647" y="1088.08696" width="8.29411765" height="8.26086957"></rect>
            <rect id="Rectangle-2" fill="#73523D" x="694.411765" y="1079.82609" width="8.29411765" height="8.26086957"></rect>
            <rect id="Rectangle-2" fill="#73523D" x="661.235294" y="1071.56522" width="8.29411765" height="8.26086957"></rect>
            <rect id="Rectangle-2" fill="#73523D" x="661.235294" y="1079.82609" width="8.29411765" height="8.26086957"></rect>
            <rect id="Rectangle-2" fill="#73523D" x="669.529412" y="1063.30435" width="8.29411765" height="8.26086957"></rect>
            <rect id="Rectangle-2" fill="#73523D" x="669.529412" y="1055.04348" width="8.29411765" height="8.26086957"></rect>
            <rect id="Rectangle-2" fill="#73523D" x="677.823529" y="1055.04348" width="8.29411765" height="8.26086957"></rect>
            <rect id="Rectangle-2" fill="#73523D" x="669.529412" y="1046.78261" width="8.29411765" height="8.26086957"></rect>
            <rect id="Rectangle-2" fill="#73523D" x="652.941176" y="1063.30435" width="8.29411765" height="8.26086957"></rect>
            <rect id="Rectangle-2" fill="#73523D" x="644.647059" y="1038.52174" width="8.29411765" height="8.26086957"></rect>
            <rect id="Rectangle-2" fill="#73523D" x="661.235294" y="1055.04348" width="8.29411765" height="8.26086957"></rect>
            <rect id="Rectangle-2" fill="#73523D" x="642.988235" y="1080.65217" width="8.29411765" height="8.26086957"></rect>
            <rect id="Rectangle-2" fill="#73523D" x="611.470588" y="1038.52174" width="8.29411765" height="8.26086957"></rect>
            <rect id="Rectangle-2" fill="#000000" x="611.470588" y="1030.26087" width="8.29411765" height="8.26086957"></rect>
            <rect id="Rectangle-2" fill="#000000" x="628.058824" y="1022" width="8.29411765" height="8.26086957"></rect>
            <rect id="Rectangle-2" fill="#000000" x="594.882353" y="1038.52174" width="8.29411765" height="8.26086957"></rect>
            <rect id="Rectangle-2" fill="#000000" x="586.588235" y="1046.78261" width="8.29411765" height="8.26086957"></rect>
            <rect id="Rectangle-2" fill="#000000" x="586.588235" y="1055.04348" width="8.29411765" height="8.26086957"></rect>
            <rect id="Rectangle-2" fill="#000000" x="578.294118" y="1063.30435" width="8.29411765" height="8.26086957"></rect>
            <rect id="Rectangle-2" fill="#000000" x="578.294118" y="1071.56522" width="8.29411765" height="8.26086957"></rect>
            <rect id="Rectangle-2" fill="#000000" x="570" y="1079.82609" width="8.29411765" height="8.26086957"></rect>
            <rect id="Rectangle-2" fill="#000000" x="578.294118" y="1088.08696" width="8.29411765" height="8.26086957"></rect>
            <rect id="Rectangle-2" fill="#000000" x="586.588235" y="1096.34783" width="8.29411765" height="8.26086957"></rect>
            <rect id="Rectangle-2" fill="#000000" x="686.117647" y="1096.34783" width="8.29411765" height="8.26086957"></rect>
            <rect id="Rectangle-2" fill="#000000" x="636.352941" y="1022" width="8.29411765" height="8.26086957"></rect>
            <rect id="Rectangle-2" fill="#000000" x="652.941176" y="1022" width="8.29411765" height="8.26086957"></rect>
            <rect id="Rectangle-2" fill="#000000" x="661.235294" y="1022" width="8.29411765" height="8.26086957"></rect>
            <rect id="Rectangle-2" fill="#000000" x="661.235294" y="1030.26087" width="8.29411765" height="8.26086957"></rect>
            <rect id="Rectangle-2" fill="#000000" x="669.529412" y="1038.52174" width="8.29411765" height="8.26086957"></rect>
            <rect id="Rectangle-2" fill="#000000" x="677.823529" y="1038.52174" width="8.29411765" height="8.26086957"></rect>
            <rect id="Rectangle-2" fill="#000000" x="686.117647" y="1046.78261" width="8.29411765" height="8.26086957"></rect>
            <rect id="Rectangle-2" fill="#000000" x="686.117647" y="1055.04348" width="8.29411765" height="8.26086957"></rect>
            <rect id="Rectangle-2" fill="#000000" x="694.411765" y="1063.30435" width="8.29411765" height="8.26086957"></rect>
            <rect id="Rectangle-2" fill="#000000" x="694.411765" y="1071.56522" width="8.29411765" height="8.26086957"></rect>
            <rect id="Rectangle-2" fill="#000000" x="702.705882" y="1079.82609" width="8.29411765" height="8.26086957"></rect>
            <rect id="Rectangle-2" fill="#000000" x="694.411765" y="1088.08696" width="8.29411765" height="8.26086957"></rect>
            <rect id="Rectangle-2" fill="#000000" x="702.705882" y="1096.34783" width="8.29411765" height="8.26086957"></rect>
            <rect id="Rectangle-2" fill="#000000" x="702.705882" y="1104.6087" width="8.29411765" height="8.26086957"></rect>
            <rect id="Rectangle-2" fill="#000000" x="694.411765" y="1112.86957" width="8.29411765" height="8.26086957"></rect>
            <rect id="Rectangle-2" fill="#73523D" x="611.470588" y="1046.78261" width="8.29411765" height="8.26086957"></rect>
            <rect id="Rectangle-2" fill="#73523D" x="603.176471" y="1046.78261" width="8.29411765" height="8.26086957"></rect>
            <rect id="Rectangle-2" fill="#73523D" x="603.176471" y="1055.04348" width="8.29411765" height="8.26086957"></rect>
            <rect id="Rectangle-2" fill="#73523D" x="594.882353" y="1055.04348" width="8.29411765" height="8.26086957"></rect>
            <rect id="Rectangle-2" fill="#73523D" x="644.647059" y="1071.56522" width="8.29411765" height="8.26086957"></rect>
            <rect id="Rectangle-2" fill="#73523D" x="611.470588" y="1055.04348" width="8.29411765" height="8.26086957"></rect>
            <rect id="Rectangle-2" fill="#73523D" x="611.470588" y="1063.30435" width="8.29411765" height="8.26086957"></rect>
            <rect id="Rectangle-2" fill="#73523D" x="611.470588" y="1071.56522" width="8.29411765" height="8.26086957"></rect>
            <rect id="Rectangle-2" fill="#73523D" x="603.176471" y="1063.30435" width="8.29411765" height="8.26086957"></rect>
            <rect id="Rectangle-2" fill="#73523D" x="619.764706" y="1071.56522" width="8.29411765" height="8.26086957"></rect>
            <rect id="Rectangle-2" fill="#73523D" x="628.058824" y="1071.56522" width="8.29411765" height="8.26086957"></rect>
            <g id="Group-8" transform="translate(619.764706, 1046.782609)" fill="#73523D">
                <rect id="Rectangle-2" x="0" y="16.5217391" width="8.29411765" height="8.26086957"></rect>
                <rect id="Rectangle-2" x="8.29411765" y="16.5217391" width="8.29411765" height="8.26086957"></rect>
                <rect id="Rectangle-2" x="0" y="8.26086957" width="8.29411765" height="8.26086957"></rect>
                <rect id="Rectangle-2" x="8.29411765" y="8.26086957" width="8.29411765" height="8.26086957"></rect>
                <rect id="Rectangle-2" x="0" y="0" width="8.29411765" height="8.26086957"></rect>
                <rect id="Rectangle-2" x="8.29411765" y="0" width="8.29411765" height="8.26086957"></rect>
            </g>
            <g id="Group-8" transform="translate(636.352941, 1046.782609)" fill="#73523D">
                <rect id="Rectangle-2" x="0" y="16.5217391" width="8.29411765" height="8.26086957"></rect>
                <rect id="Rectangle-2" x="8.29411765" y="16.5217391" width="8.29411765" height="8.26086957"></rect>
                <rect id="Rectangle-2" x="0" y="8.26086957" width="8.29411765" height="8.26086957"></rect>
                <rect id="Rectangle-2" x="8.29411765" y="8.26086957" width="8.29411765" height="8.26086957"></rect>
                <rect id="Rectangle-2" x="0" y="0" width="8.29411765" height="8.26086957"></rect>
                <rect id="Rectangle-2" x="8.29411765" y="0" width="8.29411765" height="8.26086957"></rect>
            </g>
            <rect id="Rectangle-2" fill="#4F3525" x="628.058824" y="1079.82609" width="8.29411765" height="8.26086957"></rect>
            <rect id="Rectangle-2" fill="#73523D" x="594.882353" y="1063.30435" width="8.29411765" height="8.26086957"></rect>
            <rect id="Rectangle-2" fill="#4F3525" x="586.588235" y="1063.30435" width="8.29411765" height="8.26086957"></rect>
            <rect id="Rectangle-2" fill="#4F3525" x="586.588235" y="1071.56522" width="8.29411765" height="8.26086957"></rect>
            <rect id="Rectangle-2" fill="#4F3525" x="586.588235" y="1071.56522" width="8.29411765" height="8.26086957"></rect>
            <rect id="Rectangle-2" fill="#4F3525" x="586.588235" y="1079.82609" width="8.29411765" height="8.26086957"></rect>
            <rect id="Rectangle-2" fill="#4F3525" x="578.294118" y="1079.82609" width="8.29411765" height="8.26086957"></rect>
            <rect id="Rectangle-2" fill="#4F3525" x="586.588235" y="1088.08696" width="8.29411765" height="8.26086957"></rect>
            <rect id="Rectangle-2" fill="#4F3525" x="594.882353" y="1088.08696" width="8.29411765" height="8.26086957"></rect>
            <rect id="Rectangle-2" fill="#4F3525" x="594.882353" y="1079.82609" width="8.29411765" height="8.26086957"></rect>
            <rect id="Rectangle-2" fill="#4F3525" x="603.176471" y="1079.82609" width="8.29411765" height="8.26086957"></rect>
            <rect id="Rectangle-2" fill="#73523D" x="603.176471" y="1071.56522" width="8.29411765" height="8.26086957"></rect>
            <rect id="Rectangle-2" fill="#4F3525" x="594.882353" y="1071.56522" width="8.29411765" height="8.26086957"></rect>
            <rect id="Rectangle-2" fill="#4F3525" x="594.882353" y="1046.78261" width="8.29411765" height="8.26086957"></rect>
            <rect id="Rectangle-2" fill="#4F3525" x="603.176471" y="1038.52174" width="8.29411765" height="8.26086957"></rect>
            <rect id="Rectangle-2" fill="#4F3525" x="619.764706" y="1030.26087" width="8.29411765" height="8.26086957"></rect>
            <rect id="Rectangle-2" fill="#4F3525" x="636.352941" y="1030.26087" width="8.29411765" height="8.26086957"></rect>
            <rect id="Rectangle-2" fill="#4F3525" x="636.352941" y="1038.52174" width="8.29411765" height="8.26086957"></rect>
            <rect id="Rectangle-2" fill="#4F3525" x="661.235294" y="1038.52174" width="8.29411765" height="8.26086957"></rect>
            <rect id="Rectangle-2" fill="#4F3525" x="677.823529" y="1046.78261" width="8.29411765" height="8.26086957"></rect>
            <rect id="Rectangle-2" fill="#4F3525" x="677.823529" y="1063.30435" width="8.29411765" height="8.26086957"></rect>
            <rect id="Rectangle-2" fill="#4F3525" x="686.117647" y="1063.30435" width="8.29411765" height="8.26086957"></rect>
            <rect id="Rectangle-2" fill="#4F3525" x="661.235294" y="1046.78261" width="8.29411765" height="8.26086957"></rect>
            <rect id="Rectangle-2" fill="#4F3525" x="644.647059" y="1030.26087" width="8.29411765" height="8.26086957"></rect>
            <rect id="Rectangle-2" fill="#4F3525" x="636.352941" y="1079.82609" width="8.29411765" height="8.26086957"></rect>
            <rect id="Rectangle-2" fill="#4F3525" x="644.647059" y="1088.08696" width="8.29411765" height="8.26086957"></rect>
            <rect id="Rectangle-2" fill="#4F3525" x="652.941176" y="1079.82609" width="8.29411765" height="8.26086957"></rect>
            <rect id="Rectangle-2" fill="#4F3525" x="652.941176" y="1071.56522" width="8.29411765" height="8.26086957"></rect>
            <rect id="Rectangle-2" fill="#4F3525" x="669.529412" y="1079.82609" width="8.29411765" height="8.26086957"></rect>
            <rect id="Rectangle-2" fill="#4F3525" x="669.529412" y="1071.56522" width="8.29411765" height="8.26086957"></rect>
            <rect id="Rectangle-2" fill="#4F3525" x="677.823529" y="1079.82609" width="8.29411765" height="8.26086957"></rect>
            <rect id="Rectangle-2" fill="#4F3525" x="677.823529" y="1088.08696" width="8.29411765" height="8.26086957"></rect>
            <rect id="Rectangle-2" fill="#4F3525" x="677.823529" y="1071.56522" width="8.29411765" height="8.26086957"></rect>
            <rect id="Rectangle-2" fill="#4F3525" x="686.117647" y="1079.82609" width="8.29411765" height="8.26086957"></rect>
            <rect id="Rectangle-2" fill="#4F3525" x="686.117647" y="1071.56522" width="8.29411765" height="8.26086957"></rect>
            <rect id="Rectangle-2" fill="#4F3525" x="644.647059" y="1079.82609" width="8.29411765" height="8.26086957"></rect>
            <rect id="Rectangle-2" fill="#4F3525" x="636.352941" y="1071.56522" width="8.29411765" height="8.26086957"></rect>
            <rect id="Rectangle-2" fill="#73523D" x="619.764706" y="1112.86957" width="8.29411765" height="8.26086957"></rect>
            <rect id="Rectangle-2" fill="#FFE7D8" x="619.764706" y="1104.6087" width="8.29411765" height="8.26086957"></rect>
            <rect id="Rectangle-2" fill="#FFE7D8" x="611.470588" y="1129.3913" width="8.29411765" height="8.26086957"></rect>
            <rect id="Rectangle-2" fill="#FFE7D8" x="619.764706" y="1129.3913" width="8.29411765" height="8.26086957"></rect>
            <rect id="Rectangle-2" fill="#FFE7D8" x="619.764706" y="1137.65217" width="8.29411765" height="8.26086957"></rect>
            <rect id="Rectangle-2" fill="#FFE7D8" x="628.058824" y="1137.65217" width="8.29411765" height="8.26086957"></rect>
            <rect id="Rectangle-2" fill="#FFE7D8" x="628.058824" y="1129.3913" width="8.29411765" height="8.26086957"></rect>
            <rect id="Rectangle-2" fill="#FFE7D8" x="628.058824" y="1121.13043" width="8.29411765" height="8.26086957"></rect>
            <rect id="Rectangle-2" fill="#FFE7D8" x="628.058824" y="1112.86957" width="8.29411765" height="8.26086957"></rect>
            <rect id="Rectangle-2" fill="#FFE7D8" x="628.058824" y="1104.6087" width="8.29411765" height="8.26086957"></rect>
            <rect id="Rectangle-2" fill="#FFE7D8" x="628.058824" y="1096.34783" width="8.29411765" height="8.26086957"></rect>
            <rect id="Rectangle-2" fill="#FFE7D8" x="636.352941" y="1129.3913" width="8.29411765" height="8.26086957"></rect>
            <rect id="Rectangle-2" fill="#FFE7D8" x="636.352941" y="1121.13043" width="8.29411765" height="8.26086957"></rect>
            <rect id="Rectangle-2" fill="#FFE7D8" x="636.352941" y="1112.86957" width="8.29411765" height="8.26086957"></rect>
            <rect id="Rectangle-2" fill="#FFE7D8" x="636.352941" y="1104.6087" width="8.29411765" height="8.26086957"></rect>
            <rect id="Rectangle-2" fill="#FFE7D8" x="636.352941" y="1096.34783" width="8.29411765" height="8.26086957"></rect>
            <rect id="Rectangle-2" fill="#FFE7D8" x="619.764706" y="1096.34783" width="8.29411765" height="8.26086957"></rect>
            <rect id="Rectangle-2" fill="#FFE7D8" x="611.470588" y="1096.34783" width="8.29411765" height="8.26086957"></rect>
            <rect id="Rectangle-2" fill="#FFE7D8" x="603.176471" y="1096.34783" width="8.29411765" height="8.26086957"></rect>
            <rect id="Rectangle-2" fill="#FFE7D8" x="603.176471" y="1088.08696" width="8.29411765" height="8.26086957"></rect>
            <rect id="Rectangle-2" fill="#000000" x="619.764706" y="1121.13043" width="8.29411765" height="8.26086957"></rect>
            <rect id="Rectangle-2" fill="#FFFFFF" transform="translate(665.382353, 1125.260870) scale(-1, 1) translate(-665.382353, -1125.260870) " x="661.235294" y="1121.13043" width="8.29411765" height="8.26086957"></rect>
            <rect id="Rectangle-2" fill="#F7F7F7" transform="translate(665.382353, 1117.000000) scale(-1, 1) translate(-665.382353, -1117.000000) " x="661.235294" y="1112.86957" width="8.29411765" height="8.26086957"></rect>
            <rect id="Rectangle-2" fill="#73523D" transform="translate(673.676471, 1108.739130) scale(-1, 1) translate(-673.676471, -1108.739130) " x="669.529412" y="1104.6087" width="8.29411765" height="8.26086957"></rect>
            <rect id="Rectangle-2" fill="#73523D" transform="translate(665.382353, 1108.739130) scale(-1, 1) translate(-665.382353, -1108.739130) " x="661.235294" y="1104.6087" width="8.29411765" height="8.26086957"></rect>
            <rect id="Rectangle-2" fill="#73523D" transform="translate(657.088235, 1117.000000) scale(-1, 1) translate(-657.088235, -1117.000000) " x="652.941176" y="1112.86957" width="8.29411765" height="8.26086957"></rect>
            <rect id="Rectangle-2" fill="#FFE7D8" transform="translate(657.088235, 1108.739130) scale(-1, 1) translate(-657.088235, -1108.739130) " x="652.941176" y="1104.6087" width="8.29411765" height="8.26086957"></rect>
            <rect id="Rectangle-2" fill="#FFE7D8" transform="translate(665.382353, 1133.521739) scale(-1, 1) translate(-665.382353, -1133.521739) " x="661.235294" y="1129.3913" width="8.29411765" height="8.26086957"></rect>
            <rect id="Rectangle-2" fill="#FFE7D8" transform="translate(657.088235, 1133.521739) scale(-1, 1) translate(-657.088235, -1133.521739) " x="652.941176" y="1129.3913" width="8.29411765" height="8.26086957"></rect>
            <rect id="Rectangle-2" fill="#FFE7D8" transform="translate(657.088235, 1141.782609) scale(-1, 1) translate(-657.088235, -1141.782609) " x="652.941176" y="1137.65217" width="8.29411765" height="8.26086957"></rect>
            <rect id="Rectangle-2" fill="#7C8C66" transform="translate(673.676471, 1158.304348) scale(-1, 1) translate(-673.676471, -1158.304348) " x="669.529412" y="1154.17391" width="8.29411765" height="8.26086957"></rect>
            <rect id="Rectangle-2" fill="#FFE7D8" transform="translate(648.794118, 1141.782609) scale(-1, 1) translate(-648.794118, -1141.782609) " x="644.647059" y="1137.65217" width="8.29411765" height="8.26086957"></rect>
            <rect id="Rectangle-2" fill="#FDD5BB" transform="translate(640.500000, 1141.782609) scale(-1, 1) translate(-640.500000, -1141.782609) " x="636.352941" y="1137.65217" width="8.29411765" height="8.26086957"></rect>
            <rect id="Rectangle-2" fill="#FDD5BB" transform="translate(632.205882, 1150.043478) scale(-1, 1) translate(-632.205882, -1150.043478) " x="628.058824" y="1145.91304" width="8.29411765" height="8.26086957"></rect>
            <rect id="Rectangle-2" fill="#FDD5BB" transform="translate(640.500000, 1150.043478) scale(-1, 1) translate(-640.500000, -1150.043478) " x="636.352941" y="1145.91304" width="8.29411765" height="8.26086957"></rect>
            <rect id="Rectangle-2" fill="#FDD5BB" transform="translate(648.794118, 1150.043478) scale(-1, 1) translate(-648.794118, -1150.043478) " x="644.647059" y="1145.91304" width="8.29411765" height="8.26086957"></rect>
            <rect id="Rectangle-2" fill="#FDD5BB" transform="translate(665.382353, 1141.782609) scale(-1, 1) translate(-665.382353, -1141.782609) " x="661.235294" y="1137.65217" width="8.29411765" height="8.26086957"></rect>
            <rect id="Rectangle-2" fill="#FDD5BB" transform="translate(673.676471, 1133.521739) scale(-1, 1) translate(-673.676471, -1133.521739) " x="669.529412" y="1129.3913" width="8.29411765" height="8.26086957"></rect>
            <rect id="Rectangle-2" fill="#FDD5BB" transform="translate(673.676471, 1125.260870) scale(-1, 1) translate(-673.676471, -1125.260870) " x="669.529412" y="1121.13043" width="8.29411765" height="8.26086957"></rect>
            <rect id="Rectangle-2" fill="#FDD5BB" transform="translate(681.970588, 1125.260870) scale(-1, 1) translate(-681.970588, -1125.260870) " x="677.823529" y="1121.13043" width="8.29411765" height="8.26086957"></rect>
            <rect id="Rectangle-2" fill="#FDD5BB" transform="translate(657.088235, 1092.217391) scale(-1, 1) translate(-657.088235, -1092.217391) " x="652.941176" y="1088.08696" width="8.29411765" height="8.26086957"></rect>
            <rect id="Rectangle-2" fill="#FDD5BB" transform="translate(665.382353, 1092.217391) scale(-1, 1) translate(-665.382353, -1092.217391) " x="661.235294" y="1088.08696" width="8.29411765" height="8.26086957"></rect>
            <rect id="Rectangle-2" fill="#FDD5BB" transform="translate(615.617647, 1092.217391) scale(-1, 1) translate(-615.617647, -1092.217391) " x="611.470588" y="1088.08696" width="8.29411765" height="8.26086957"></rect>
            <rect id="Rectangle-2" fill="#FDD5BB" transform="translate(615.617647, 1083.956522) scale(-1, 1) translate(-615.617647, -1083.956522) " x="611.470588" y="1079.82609" width="8.29411765" height="8.26086957"></rect>
            <rect id="Rectangle-2" fill="#FDD5BB" transform="translate(623.911765, 1092.217391) scale(-1, 1) translate(-623.911765, -1092.217391) " x="619.764706" y="1088.08696" width="8.29411765" height="8.26086957"></rect>
            <rect id="Rectangle-2" fill="#FDD5BB" transform="translate(632.205882, 1092.217391) scale(-1, 1) translate(-632.205882, -1092.217391) " x="628.058824" y="1088.08696" width="8.29411765" height="8.26086957"></rect>
            <rect id="Rectangle-2" fill="#FDD5BB" transform="translate(640.500000, 1092.217391) scale(-1, 1) translate(-640.500000, -1092.217391) " x="636.352941" y="1088.08696" width="8.29411765" height="8.26086957"></rect>
            <rect id="Rectangle-2" fill="#FDD5BB" transform="translate(673.676471, 1117.000000) scale(-1, 1) translate(-673.676471, -1117.000000) " x="669.529412" y="1112.86957" width="8.29411765" height="8.26086957"></rect>
            <rect id="Rectangle-2" fill="#FDD5BB" transform="translate(681.970588, 1117.000000) scale(-1, 1) translate(-681.970588, -1117.000000) " x="677.823529" y="1112.86957" width="8.29411765" height="8.26086957"></rect>
            <rect id="Rectangle-2" fill="#FDD5BB" transform="translate(681.970588, 1108.739130) scale(-1, 1) translate(-681.970588, -1108.739130) " x="677.823529" y="1104.6087" width="8.29411765" height="8.26086957"></rect>
            <rect id="Rectangle-2" fill="#CC916C" transform="translate(690.264706, 1117.000000) scale(-1, 1) translate(-690.264706, -1117.000000) " x="686.117647" y="1112.86957" width="8.29411765" height="8.26086957"></rect>
            <rect id="Rectangle-2" fill="#CC916C" transform="translate(681.970588, 1133.521739) scale(-1, 1) translate(-681.970588, -1133.521739) " x="677.823529" y="1129.3913" width="8.29411765" height="8.26086957"></rect>
            <rect id="Rectangle-2" fill="#CC916C" transform="translate(673.676471, 1141.782609) scale(-1, 1) translate(-673.676471, -1141.782609) " x="669.529412" y="1137.65217" width="8.29411765" height="8.26086957"></rect>
            <rect id="Rectangle-2" fill="#CC916C" transform="translate(657.088235, 1150.043478) scale(-1, 1) translate(-657.088235, -1150.043478) " x="652.941176" y="1145.91304" width="8.29411765" height="8.26086957"></rect>
            <rect id="Rectangle-2" fill="#CC916C" transform="translate(690.264706, 1108.739130) scale(-1, 1) translate(-690.264706, -1108.739130) " x="686.117647" y="1104.6087" width="8.29411765" height="8.26086957"></rect>
            <rect id="Rectangle-2" fill="#CC916C" transform="translate(590.735294, 1117.000000) scale(-1, 1) translate(-590.735294, -1117.000000) " x="586.588235" y="1112.86957" width="8.29411765" height="8.26086957"></rect>
            <rect id="Rectangle-2" fill="#CC916C" transform="translate(590.735294, 1108.739130) scale(-1, 1) translate(-590.735294, -1108.739130) " x="586.588235" y="1104.6087" width="8.29411765" height="8.26086957"></rect>
            <rect id="Rectangle-2" fill="#FDD5BB" transform="translate(698.558824, 1108.739130) scale(-1, 1) translate(-698.558824, -1108.739130) " x="694.411765" y="1104.6087" width="8.29411765" height="8.26086957"></rect>
            <rect id="Rectangle-2" fill="#FDD5BB" transform="translate(698.558824, 1100.478261) scale(-1, 1) translate(-698.558824, -1100.478261) " x="694.411765" y="1096.34783" width="8.29411765" height="8.26086957"></rect>
            <rect id="Rectangle-2" fill="#FDD5BB" transform="translate(582.441176, 1108.739130) scale(-1, 1) translate(-582.441176, -1108.739130) " x="578.294118" y="1104.6087" width="8.29411765" height="8.26086957"></rect>
            <rect id="Rectangle-2" fill="#FDD5BB" transform="translate(582.441176, 1100.478261) scale(-1, 1) translate(-582.441176, -1100.478261) " x="578.294118" y="1096.34783" width="8.29411765" height="8.26086957"></rect>
            <rect id="Rectangle-2" fill="#FDD5BB" transform="translate(681.970588, 1100.478261) scale(-1, 1) translate(-681.970588, -1100.478261) " x="677.823529" y="1096.34783" width="8.29411765" height="8.26086957"></rect>
            <rect id="Rectangle-2" fill="#FDD5BB" x="611.470588" y="1137.65217" width="8.29411765" height="8.26086957"></rect>
            <rect id="Rectangle-2" fill="#FDD5BB" x="603.176471" y="1129.3913" width="8.29411765" height="8.26086957"></rect>
            <rect id="Rectangle-2" fill="#FDD5BB" x="603.176471" y="1121.13043" width="8.29411765" height="8.26086957"></rect>
            <rect id="Rectangle-2" fill="#FDD5BB" x="594.882353" y="1121.13043" width="8.29411765" height="8.26086957"></rect>
            <rect id="Rectangle-2" fill="#FDD5BB" x="603.176471" y="1112.86957" width="8.29411765" height="8.26086957"></rect>
            <rect id="Rectangle-2" fill="#FDD5BB" x="594.882353" y="1112.86957" width="8.29411765" height="8.26086957"></rect>
            <rect id="Rectangle-2" fill="#FDD5BB" x="594.882353" y="1104.6087" width="8.29411765" height="8.26086957"></rect>
            <rect id="Rectangle-2" fill="#FDD5BB" x="594.882353" y="1096.34783" width="8.29411765" height="8.26086957"></rect>
            <rect id="Rectangle-2" fill="#FFE7D8" transform="translate(648.794118, 1133.521739) scale(-1, 1) translate(-648.794118, -1133.521739) " x="644.647059" y="1129.3913" width="8.29411765" height="8.26086957"></rect>
            <rect id="Rectangle-2" fill="#FFE7D8" transform="translate(648.794118, 1125.260870) scale(-1, 1) translate(-648.794118, -1125.260870) " x="644.647059" y="1121.13043" width="8.29411765" height="8.26086957"></rect>
            <rect id="Rectangle-2" fill="#FFE7D8" transform="translate(648.794118, 1117.000000) scale(-1, 1) translate(-648.794118, -1117.000000) " x="644.647059" y="1112.86957" width="8.29411765" height="8.26086957"></rect>
            <rect id="Rectangle-2" fill="#FFE7D8" transform="translate(648.794118, 1108.739130) scale(-1, 1) translate(-648.794118, -1108.739130) " x="644.647059" y="1104.6087" width="8.29411765" height="8.26086957"></rect>
            <rect id="Rectangle-2" fill="#FFE7D8" transform="translate(648.794118, 1100.478261) scale(-1, 1) translate(-648.794118, -1100.478261) " x="644.647059" y="1096.34783" width="8.29411765" height="8.26086957"></rect>
            <rect id="Rectangle-2" fill="#FFE7D8" transform="translate(657.088235, 1100.478261) scale(-1, 1) translate(-657.088235, -1100.478261) " x="652.941176" y="1096.34783" width="8.29411765" height="8.26086957"></rect>
            <rect id="Rectangle-2" fill="#FFE7D8" transform="translate(665.382353, 1100.478261) scale(-1, 1) translate(-665.382353, -1100.478261) " x="661.235294" y="1096.34783" width="8.29411765" height="8.26086957"></rect>
            <rect id="Rectangle-2" fill="#FFE7D8" transform="translate(673.676471, 1100.478261) scale(-1, 1) translate(-673.676471, -1100.478261) " x="669.529412" y="1096.34783" width="8.29411765" height="8.26086957"></rect>
            <rect id="Rectangle-2" fill="#FFE7D8" transform="translate(673.676471, 1092.217391) scale(-1, 1) translate(-673.676471, -1092.217391) " x="669.529412" y="1088.08696" width="8.29411765" height="8.26086957"></rect>
            <rect id="Rectangle-2" fill="#000000" transform="translate(657.088235, 1125.260870) scale(-1, 1) translate(-657.088235, -1125.260870) " x="652.941176" y="1121.13043" width="8.29411765" height="8.26086957"></rect>
            <rect id="Rectangle-2" fill="#000000" x="686.117647" y="1121.13043" width="8.29411765" height="8.26086957"></rect>
            <rect id="Rectangle-2" fill="#000000" x="677.823529" y="1137.65217" width="8.29411765" height="8.26086957"></rect>
            <rect id="Rectangle-2" fill="#7C8C66" transform="translate(673.676471, 1150.043478) scale(-1, 1) translate(-673.676471, -1150.043478) " x="669.529412" y="1145.91304" width="8.29411765" height="8.26086957"></rect>
            <rect id="Rectangle-2" fill="#7C8C66" transform="translate(681.970588, 1150.043478) scale(-1, 1) translate(-681.970588, -1150.043478) " x="677.823529" y="1145.91304" width="8.29411765" height="8.26086957"></rect>
            <rect id="Rectangle-2" fill="#7C8C66" transform="translate(681.970588, 1158.304348) scale(-1, 1) translate(-681.970588, -1158.304348) " x="677.823529" y="1154.17391" width="8.29411765" height="8.26086957"></rect>
            <rect id="Rectangle-2" fill="#7C8C66" transform="translate(681.970588, 1166.565217) scale(-1, 1) translate(-681.970588, -1166.565217) " x="677.823529" y="1162.43478" width="8.29411765" height="8.26086957"></rect>
            <rect id="Rectangle-2" fill="#B1C09A" transform="translate(690.264706, 1158.304348) scale(-1, 1) translate(-690.264706, -1158.304348) " x="686.117647" y="1154.17391" width="8.29411765" height="8.26086957"></rect>
            <rect id="Rectangle-2" fill="#B1C09A" transform="translate(690.264706, 1166.565217) scale(-1, 1) translate(-690.264706, -1166.565217) " x="686.117647" y="1162.43478" width="8.29411765" height="8.26086957"></rect>
            <rect id="Rectangle-2" fill="#7C8C66" transform="translate(665.382353, 1158.304348) scale(-1, 1) translate(-665.382353, -1158.304348) " x="661.235294" y="1154.17391" width="8.29411765" height="8.26086957"></rect>
            <rect id="Rectangle-2" fill="#FDD5BB" transform="translate(698.558824, 1166.565217) scale(-1, 1) translate(-698.558824, -1166.565217) " x="694.411765" y="1162.43478" width="8.29411765" height="8.26086957"></rect>
            <rect id="Rectangle-2" fill="#FDD5BB" transform="translate(698.558824, 1174.826087) scale(-1, 1) translate(-698.558824, -1174.826087) " x="694.411765" y="1170.69565" width="8.29411765" height="8.26086957"></rect>
            <rect id="Rectangle-2" fill="#FDD5BB" transform="translate(690.264706, 1174.826087) scale(-1, 1) translate(-690.264706, -1174.826087) " x="686.117647" y="1170.69565" width="8.29411765" height="8.26086957"></rect>
            <rect id="Rectangle-2" fill="#CC916C" transform="translate(698.558824, 1158.304348) scale(-1, 1) translate(-698.558824, -1158.304348) " x="694.411765" y="1154.17391" width="8.29411765" height="8.26086957"></rect>
            <rect id="Rectangle-2" fill="#000000" x="686.117647" y="1145.91304" width="8.29411765" height="8.26086957"></rect>
            <rect id="Rectangle-2" fill="#000000" x="702.705882" y="1162.43478" width="8.29411765" height="8.26086957"></rect>
            <rect id="Rectangle-2" fill="#000000" x="702.705882" y="1170.69565" width="8.29411765" height="8.26086957"></rect>
            <rect id="Rectangle-2" fill="#000000" x="677.823529" y="1170.69565" width="8.29411765" height="8.26086957"></rect>
            <rect id="Rectangle-2" fill="#000000" x="677.823529" y="1178.95652" width="8.29411765" height="8.26086957"></rect>
            <rect id="Rectangle-2" fill="#000000" x="677.823529" y="1187.21739" width="8.29411765" height="8.26086957"></rect>
            <rect id="Rectangle-2" fill="#000000" x="677.823529" y="1195.47826" width="8.29411765" height="8.26086957"></rect>
            <rect id="Rectangle-2" fill="#000000" x="669.529412" y="1162.43478" width="8.29411765" height="8.26086957"></rect>
            <rect id="Rectangle-2" fill="#000000" x="669.529412" y="1170.69565" width="8.29411765" height="8.26086957"></rect>
            <rect id="Rectangle-2" fill="#E6BE77" x="669.529412" y="1178.95652" width="8.29411765" height="8.26086957"></rect>
            <rect id="Rectangle-2" fill="#E6BE77" x="669.529412" y="1187.21739" width="8.29411765" height="8.26086957"></rect>
            <rect id="Rectangle-2" fill="#E6BE77" x="603.176471" y="1178.95652" width="8.29411765" height="8.26086957"></rect>
            <rect id="Rectangle-2" fill="#E6BE77" x="603.176471" y="1187.21739" width="8.29411765" height="8.26086957"></rect>
            <rect id="Rectangle-2" fill="#E6BE77" x="611.470588" y="1187.21739" width="58.0588235" height="8.26086957"></rect>
            <rect id="Rectangle-2" fill="#000000" x="661.235294" y="1178.95652" width="8.29411765" height="8.26086957"></rect>
            <rect id="Rectangle-2" fill="#000000" x="652.941176" y="1178.95652" width="8.29411765" height="8.26086957"></rect>
            <rect id="Rectangle-2" fill="#000000" x="669.529412" y="1203.73913" width="8.29411765" height="8.26086957"></rect>
            <rect id="Rectangle-2" fill="#000000" x="661.235294" y="1203.73913" width="8.29411765" height="8.26086957"></rect>
            <rect id="Rectangle-2" fill="#A5AFC6" x="669.529412" y="1195.47826" width="8.29411765" height="8.26086957"></rect>
            <rect id="Rectangle-2" fill="#A5AFC6" x="661.235294" y="1195.47826" width="8.29411765" height="8.26086957"></rect>
            <rect id="Rectangle-2" fill="#A5AFC6" x="611.470588" y="1195.47826" width="8.29411765" height="8.26086957"></rect>
            <rect id="Rectangle-2" fill="#A5AFC6" x="603.176471" y="1195.47826" width="8.29411765" height="8.26086957"></rect>
            <rect id="Rectangle-2" fill="#000000" x="611.470588" y="1203.73913" width="8.29411765" height="8.26086957"></rect>
            <rect id="Rectangle-2" fill="#000000" x="603.176471" y="1203.73913" width="8.29411765" height="8.26086957"></rect>
            <rect id="Rectangle-2" fill="#000000" x="686.117647" y="1178.95652" width="8.29411765" height="8.26086957"></rect>
            <rect id="Rectangle-2" fill="#000000" x="694.411765" y="1178.95652" width="8.29411765" height="8.26086957"></rect>
            <rect id="Rectangle-2" fill="#7C8C66" x="603.176471" y="1154.17391" width="8.29411765" height="8.26086957"></rect>
            <rect id="Rectangle-2" fill="#7C8C66" x="603.176471" y="1145.91304" width="8.29411765" height="8.26086957"></rect>
            <rect id="Rectangle-2" fill="#7C8C66" x="594.882353" y="1145.91304" width="8.29411765" height="8.26086957"></rect>
            <rect id="Rectangle-2" fill="#7C8C66" x="594.882353" y="1154.17391" width="8.29411765" height="8.26086957"></rect>
            <rect id="Rectangle-2" fill="#7C8C66" x="594.882353" y="1162.43478" width="8.29411765" height="8.26086957"></rect>
            <rect id="Rectangle-2" fill="#B1C09A" x="586.588235" y="1154.17391" width="8.29411765" height="8.26086957"></rect>
            <rect id="Rectangle-2" fill="#B1C09A" x="586.588235" y="1162.43478" width="8.29411765" height="8.26086957"></rect>
            <rect id="Rectangle-2" fill="#7C8C66" x="611.470588" y="1154.17391" width="8.29411765" height="8.26086957"></rect>
            <rect id="Rectangle-2" fill="#7C8C66" x="611.470588" y="1162.43478" width="8.29411765" height="8.26086957"></rect>
            <rect id="Rectangle-2" fill="#7C8C66" x="611.470588" y="1170.69565" width="8.29411765" height="8.26086957"></rect>
            <rect id="Rectangle-2" fill="#576149" x="619.764706" y="1154.17391" width="8.29411765" height="8.26086957"></rect>
            <rect id="Rectangle-2" fill="#576149" x="619.764706" y="1162.43478" width="8.29411765" height="8.26086957"></rect>
            <rect id="Rectangle-2" fill="#E9E9E9" x="619.764706" y="1170.69565" width="8.29411765" height="8.26086957"></rect>
            <rect id="Rectangle-2" fill="#E9E9E9" x="652.941176" y="1170.69565" width="8.29411765" height="8.26086957"></rect>
            <rect id="Rectangle-2" fill="#576149" x="652.941176" y="1162.43478" width="8.29411765" height="8.26086957"></rect>
            <rect id="Rectangle-2" fill="#576149" x="652.941176" y="1154.17391" width="8.29411765" height="8.26086957"></rect>
            <rect id="Rectangle-2" fill="#7C8C66" x="661.235294" y="1162.43478" width="8.29411765" height="8.26086957"></rect>
            <rect id="Rectangle-2" fill="#7C8C66" x="661.235294" y="1170.69565" width="8.29411765" height="8.26086957"></rect>
            <rect id="Rectangle-2" fill="#FDD5BB" x="578.294118" y="1162.43478" width="8.29411765" height="8.26086957"></rect>
            <rect id="Rectangle-2" fill="#FDD5BB" x="578.294118" y="1170.69565" width="8.29411765" height="8.26086957"></rect>
            <rect id="Rectangle-2" fill="#FDD5BB" x="586.588235" y="1170.69565" width="8.29411765" height="8.26086957"></rect>
            <rect id="Rectangle-2" fill="#CC916C" x="578.294118" y="1154.17391" width="8.29411765" height="8.26086957"></rect>
            <rect id="Rectangle-2" fill="#000000" transform="translate(590.735294, 1150.043478) scale(-1, 1) translate(-590.735294, -1150.043478) " x="586.588235" y="1145.91304" width="8.29411765" height="8.26086957"></rect>
            <rect id="Rectangle-2" fill="#000000" transform="translate(574.147059, 1166.565217) scale(-1, 1) translate(-574.147059, -1166.565217) " x="570" y="1162.43478" width="8.29411765" height="8.26086957"></rect>
            <rect id="Rectangle-2" fill="#000000" transform="translate(574.147059, 1174.826087) scale(-1, 1) translate(-574.147059, -1174.826087) " x="570" y="1170.69565" width="8.29411765" height="8.26086957"></rect>
            <rect id="Rectangle-2" fill="#000000" transform="translate(599.029412, 1174.826087) scale(-1, 1) translate(-599.029412, -1174.826087) " x="594.882353" y="1170.69565" width="8.29411765" height="8.26086957"></rect>
            <rect id="Rectangle-2" fill="#000000" transform="translate(599.029412, 1183.086957) scale(-1, 1) translate(-599.029412, -1183.086957) " x="594.882353" y="1178.95652" width="8.29411765" height="8.26086957"></rect>
            <rect id="Rectangle-2" fill="#000000" transform="translate(599.029412, 1191.347826) scale(-1, 1) translate(-599.029412, -1191.347826) " x="594.882353" y="1187.21739" width="8.29411765" height="8.26086957"></rect>
            <rect id="Rectangle-2" fill="#000000" transform="translate(599.029412, 1199.608696) scale(-1, 1) translate(-599.029412, -1199.608696) " x="594.882353" y="1195.47826" width="8.29411765" height="8.26086957"></rect>
            <rect id="Rectangle-2" fill="#000000" transform="translate(607.323529, 1166.565217) scale(-1, 1) translate(-607.323529, -1166.565217) " x="603.176471" y="1162.43478" width="8.29411765" height="8.26086957"></rect>
            <rect id="Rectangle-2" fill="#000000" transform="translate(607.323529, 1174.826087) scale(-1, 1) translate(-607.323529, -1174.826087) " x="603.176471" y="1170.69565" width="8.29411765" height="8.26086957"></rect>
            <rect id="Rectangle-2" fill="#000000" transform="translate(615.617647, 1183.086957) scale(-1, 1) translate(-615.617647, -1183.086957) " x="611.470588" y="1178.95652" width="8.29411765" height="8.26086957"></rect>
            <rect id="Rectangle-2" fill="#000000" transform="translate(623.911765, 1183.086957) scale(-1, 1) translate(-623.911765, -1183.086957) " x="619.764706" y="1178.95652" width="8.29411765" height="8.26086957"></rect>
            <rect id="Rectangle-2" fill="#000000" x="652.941176" y="1195.47826" width="8.29411765" height="8.26086957"></rect>
            <rect id="Rectangle-2" fill="#000000" transform="translate(623.911765, 1199.608696) scale(-1, 1) translate(-623.911765, -1199.608696) " x="619.764706" y="1195.47826" width="8.29411765" height="8.26086957"></rect>
            <rect id="Rectangle-2" fill="#000000" transform="translate(632.205882, 1199.608696) scale(-1, 1) translate(-632.205882, -1199.608696) " x="628.058824" y="1195.47826" width="8.29411765" height="8.26086957"></rect>
            <rect id="Rectangle-2" fill="#000000" transform="translate(640.500000, 1199.608696) scale(-1, 1) translate(-640.500000, -1199.608696) " x="636.352941" y="1195.47826" width="8.29411765" height="8.26086957"></rect>
            <rect id="Rectangle-2" fill="#000000" transform="translate(648.794118, 1199.608696) scale(-1, 1) translate(-648.794118, -1199.608696) " x="644.647059" y="1195.47826" width="8.29411765" height="8.26086957"></rect>
            <rect id="Rectangle-2" fill="#000000" transform="translate(590.735294, 1183.086957) scale(-1, 1) translate(-590.735294, -1183.086957) " x="586.588235" y="1178.95652" width="8.29411765" height="8.26086957"></rect>
            <rect id="Rectangle-2" fill="#000000" transform="translate(582.441176, 1183.086957) scale(-1, 1) translate(-582.441176, -1183.086957) " x="578.294118" y="1178.95652" width="8.29411765" height="8.26086957"></rect>
            <rect id="Rectangle-2" fill="#000000" x="661.235294" y="1145.91304" width="8.29411765" height="8.26086957"></rect>
            <rect id="Rectangle-2" fill="#000000" transform="translate(574.147059, 1100.478261) scale(-1, 1) translate(-574.147059, -1100.478261) " x="570" y="1096.34783" width="8.29411765" height="8.26086957"></rect>
            <rect id="Rectangle-2" fill="#000000" transform="translate(574.147059, 1108.739130) scale(-1, 1) translate(-574.147059, -1108.739130) " x="570" y="1104.6087" width="8.29411765" height="8.26086957"></rect>
            <rect id="Rectangle-2" fill="#000000" transform="translate(582.441176, 1117.000000) scale(-1, 1) translate(-582.441176, -1117.000000) " x="578.294118" y="1112.86957" width="8.29411765" height="8.26086957"></rect>
            <rect id="Rectangle-2" fill="#CC916C" x="594.882353" y="1129.3913" width="8.29411765" height="8.26086957"></rect>
            <rect id="Rectangle-2" fill="#CC916C" x="603.176471" y="1137.65217" width="8.29411765" height="8.26086957"></rect>
            <rect id="Rectangle-2" fill="#CC916C" x="619.764706" y="1145.91304" width="8.29411765" height="8.26086957"></rect>
            <rect id="Rectangle-2" fill="#000000" transform="translate(590.735294, 1125.260870) scale(-1, 1) translate(-590.735294, -1125.260870) " x="586.588235" y="1121.13043" width="8.29411765" height="8.26086957"></rect>
            <rect id="Rectangle-2" fill="#000000" transform="translate(599.029412, 1141.782609) scale(-1, 1) translate(-599.029412, -1141.782609) " x="594.882353" y="1137.65217" width="8.29411765" height="8.26086957"></rect>
            <rect id="Rectangle-2" fill="#000000" transform="translate(615.617647, 1150.043478) scale(-1, 1) translate(-615.617647, -1150.043478) " x="611.470588" y="1145.91304" width="8.29411765" height="8.26086957"></rect>
        </g>
    </g>
</svg>