<?xml version="1.0" encoding="UTF-8"?>
<svg width="349px" height="49px" viewBox="0 0 349 49" version="1.1" xmlns="http://www.w3.org/2000/svg" xmlns:xlink="http://www.w3.org/1999/xlink">
    <!-- Generator: Sketch 46 (44423) - http://www.bohemiancoding.com/sketch -->
    <title>projects</title>
    <desc>Created with Sketch.</desc>
    <defs></defs>
    <g id="Page-1" stroke="none" stroke-width="1" fill="none" fill-rule="evenodd">
        <g id="Desktop" transform="translate(-209.000000, -1981.000000)" fill="#000000">
            <g id="Group-2" transform="translate(209.000000, 1981.000000)">
                <rect id="Rectangle-2" x="88" y="24" width="8.29411765" height="8.26086957"></rect>
                <rect id="Rectangle-2" x="88" y="16" width="8.29411765" height="8.26086957"></rect>
                <rect id="Rectangle-2" x="88" y="8" width="8.29411765" height="8.26086957"></rect>
                <rect id="Rectangle-2" x="96" y="0" width="8.29411765" height="8.26086957"></rect>
                <rect id="Rectangle-2" x="104" y="0" width="8.29411765" height="8.26086957"></rect>
                <rect id="Rectangle-2" x="96" y="40" width="8.29411765" height="8.26086957"></rect>
                <rect id="Rectangle-2" x="104" y="40" width="8.29411765" height="8.26086957"></rect>
                <rect id="Rectangle-2" x="88" y="32" width="8.29411765" height="8.26086957"></rect>
                <rect id="Rectangle-2" x="112" y="24" width="8.29411765" height="8.26086957"></rect>
                <rect id="Rectangle-2" x="112" y="16" width="8.29411765" height="8.26086957"></rect>
                <rect id="Rectangle-2" x="112" y="8" width="8.29411765" height="8.26086957"></rect>
                <rect id="Rectangle-2" x="112" y="32" width="8.29411765" height="8.26086957"></rect>
                <rect id="Rectangle-2" x="176" y="24" width="8.29411765" height="8.26086957"></rect>
                <rect id="Rectangle-2" x="176" y="16" width="8.29411765" height="8.26086957"></rect>
                <rect id="Rectangle-2" x="176" y="8" width="8.29411765" height="8.26086957"></rect>
                <rect id="Rectangle-2" x="176" y="0" width="8.29411765" height="8.26086957"></rect>
                <rect id="Rectangle-2" x="184" y="0" width="8.29411765" height="8.26086957"></rect>
                <rect id="Rectangle-2" x="192" y="0" width="8.29411765" height="8.26086957"></rect>
                <rect id="Rectangle-2" x="184" y="20" width="8.29411765" height="8.26086957"></rect>
                <rect id="Rectangle-2" x="192" y="20" width="8.29411765" height="8.26086957"></rect>
                <rect id="Rectangle-2" x="184" y="40" width="8.29411765" height="8.26086957"></rect>
                <rect id="Rectangle-2" x="192" y="40" width="8.29411765" height="8.26086957"></rect>
                <rect id="Rectangle-2" x="200" y="0" width="8.29411765" height="8.26086957"></rect>
                <rect id="Rectangle-2" x="200" y="40" width="8.29411765" height="8.26086957"></rect>
                <rect id="Rectangle-2" x="176" y="32" width="8.29411765" height="8.26086957"></rect>
                <rect id="Rectangle-2" x="176" y="40" width="8.29411765" height="8.26086957"></rect>
                <rect id="Rectangle-2" x="316" y="8" width="8.29411765" height="8.26086957"></rect>
                <rect id="Rectangle-2" x="324" y="0" width="8.29411765" height="8.26086957"></rect>
                <rect id="Rectangle-2" x="332" y="0" width="8.29411765" height="8.26086957"></rect>
                <rect id="Rectangle-2" x="340" y="8" width="8.29411765" height="8.26086957"></rect>
                <rect id="Rectangle-2" x="332" y="24" width="8.29411765" height="8.26086957"></rect>
                <rect id="Rectangle-2" x="324" y="16" width="8.29411765" height="8.26086957"></rect>
                <rect id="Rectangle-2" x="340" y="32" width="8.29411765" height="8.26086957"></rect>
                <rect id="Rectangle-2" x="332" y="40" width="8.29411765" height="8.26086957"></rect>
                <rect id="Rectangle-2" x="324" y="40" width="8.29411765" height="8.26086957"></rect>
                <rect id="Rectangle-2" x="316" y="32" width="8.29411765" height="8.26086957"></rect>
                <rect id="Rectangle-2" x="0" y="24" width="8.29411765" height="8.26086957"></rect>
                <rect id="Rectangle-2" x="0" y="16" width="8.29411765" height="8.26086957"></rect>
                <rect id="Rectangle-2" x="0" y="8" width="8.29411765" height="8.26086957"></rect>
                <rect id="Rectangle-2" x="0" y="0" width="8.29411765" height="8.26086957"></rect>
                <rect id="Rectangle-2" x="8" y="0" width="8.29411765" height="8.26086957"></rect>
                <rect id="Rectangle-2" x="16" y="0" width="8.29411765" height="8.26086957"></rect>
                <rect id="Rectangle-2" x="24" y="8" width="8.29411765" height="8.26086957"></rect>
                <rect id="Rectangle-2" x="24" y="16" width="8.29411765" height="8.26086957"></rect>
                <rect id="Rectangle-2" x="16" y="24" width="8.29411765" height="8.26086957"></rect>
                <rect id="Rectangle-2" x="8" y="24" width="8.29411765" height="8.26086957"></rect>
                <rect id="Rectangle-2" x="0" y="32" width="8.29411765" height="8.26086957"></rect>
                <rect id="Rectangle-2" x="0" y="40" width="8.29411765" height="8.26086957"></rect>
                <rect id="Rectangle-2" x="44" y="24" width="8.29411765" height="8.26086957"></rect>
                <rect id="Rectangle-2" x="44" y="16" width="8.29411765" height="8.26086957"></rect>
                <rect id="Rectangle-2" x="44" y="8" width="8.29411765" height="8.26086957"></rect>
                <rect id="Rectangle-2" x="44" y="0" width="8.29411765" height="8.26086957"></rect>
                <rect id="Rectangle-2" x="52" y="0" width="8.29411765" height="8.26086957"></rect>
                <rect id="Rectangle-2" x="60" y="0" width="8.29411765" height="8.26086957"></rect>
                <rect id="Rectangle-2" x="68" y="8" width="8.29411765" height="8.26086957"></rect>
                <rect id="Rectangle-2" x="68" y="16" width="8.29411765" height="8.26086957"></rect>
                <rect id="Rectangle-2" x="60" y="24" width="8.29411765" height="8.26086957"></rect>
                <rect id="Rectangle-2" x="68" y="32" width="8.29411765" height="8.26086957"></rect>
                <rect id="Rectangle-2" x="68" y="40" width="8.29411765" height="8.26086957"></rect>
                <rect id="Rectangle-2" x="52" y="24" width="8.29411765" height="8.26086957"></rect>
                <rect id="Rectangle-2" x="44" y="32" width="8.29411765" height="8.26086957"></rect>
                <rect id="Rectangle-2" x="44" y="40" width="8.29411765" height="8.26086957"></rect>
                <rect id="Rectangle-2" x="156" y="24" width="8.29411765" height="8.26086957"></rect>
                <rect id="Rectangle-2" x="156" y="16" width="8.29411765" height="8.26086957"></rect>
                <rect id="Rectangle-2" x="156" y="8" width="8.29411765" height="8.26086957"></rect>
                <rect id="Rectangle-2" x="156" y="0" width="8.29411765" height="8.26086957"></rect>
                <rect id="Rectangle-2" x="156" y="32" width="8.29411765" height="8.26086957"></rect>
                <rect id="Rectangle-2" x="140" y="40" width="8.29411765" height="8.26086957"></rect>
                <rect id="Rectangle-2" x="132" y="32" width="8.29411765" height="8.26086957"></rect>
                <rect id="Rectangle-2" x="148" y="40" width="8.29411765" height="8.26086957"></rect>
                <rect id="Rectangle-2" x="220" y="24" width="8.29411765" height="8.26086957"></rect>
                <rect id="Rectangle-2" x="220" y="16" width="8.29411765" height="8.26086957"></rect>
                <rect id="Rectangle-2" x="220" y="8" width="8.29411765" height="8.26086957"></rect>
                <rect id="Rectangle-2" x="228" y="0" width="8.29411765" height="8.26086957"></rect>
                <rect id="Rectangle-2" x="236" y="0" width="8.29411765" height="8.26086957"></rect>
                <rect id="Rectangle-2" x="228" y="40" width="8.29411765" height="8.26086957"></rect>
                <rect id="Rectangle-2" x="236" y="40" width="8.29411765" height="8.26086957"></rect>
                <rect id="Rectangle-2" x="220" y="32" width="8.29411765" height="8.26086957"></rect>
                <rect id="Rectangle-2" x="244" y="8" width="8.29411765" height="8.26086957"></rect>
                <rect id="Rectangle-2" x="244" y="32" width="8.29411765" height="8.26086957"></rect>
                <rect id="Rectangle-2" x="280" y="24" width="8.29411765" height="8.26086957"></rect>
                <rect id="Rectangle-2" x="280" y="16" width="8.29411765" height="8.26086957"></rect>
                <rect id="Rectangle-2" x="280" y="8" width="8.29411765" height="8.26086957"></rect>
                <rect id="Rectangle-2" x="280" y="0" width="8.29411765" height="8.26086957"></rect>
                <rect id="Rectangle-2" x="272" y="0" width="8.29411765" height="8.26086957"></rect>
                <rect id="Rectangle-2" x="264" y="0" width="8.29411765" height="8.26086957"></rect>
                <rect id="Rectangle-2" x="288" y="0" width="8.29411765" height="8.26086957"></rect>
                <rect id="Rectangle-2" x="296" y="0" width="8.29411765" height="8.26086957"></rect>
                <rect id="Rectangle-2" x="280" y="32" width="8.29411765" height="8.26086957"></rect>
                <rect id="Rectangle-2" x="280" y="40" width="8.29411765" height="8.26086957"></rect>
            </g>
        </g>
    </g>
</svg>